<?xml version="1.0" encoding="utf-8"?>
<svg version="1.1" preserveAspectRatio="none" width="500" height="500" viewBox="0 0 500 500" xmlns="http://www.w3.org/2000/svg">
  <defs/>
  <rect width="100%" height="100%" fill-opacity="1" style="fill: rgba(0, 0, 0, 0);"/>
  <svg viewBox="89.3863 439.834 281.6134 222" width="333" height="262.50881527654576" x="83.5px" y="118.7456px" xmlns="http://www.w3.org/2000/svg" preserveAspectRatio="none">
    <defs/>
    <style>.aa2O-D20rgJ0filter-floo {flood-color:#F539BD;flood-opacity:1;}.ai0NrGVRvc0filter-floo {flood-color:#F3F3F3;flood-opacity:0.91;}.aRWrrEA-PR0filter-floo {flood-color:#E9B0D6;flood-opacity:0.5;}.atUk6sjh6M0filter-floo {flood-color:#FFC7C7;flood-opacity:0.89;}.companyName {fill:#FBE1EF;fill-opacity:1;}.icon3 {fill:#F539BD;fill-opacity:1;}.icon3-str {stroke:#F539BD;stroke-opacity:1;}.shape-floo {flood-color:#2525CE;flood-opacity:1;}</style>
    <defs>
      <filter x="89.3863" y="439.834" width="281.6134" height="222" id="ikYEXSHZT" filterUnits="userSpaceOnUse" primitiveUnits="userSpaceOnUse" color-interpolation-filters="sRGB">
        <feGaussianBlur in="SourceGraphic" stdDeviation="7"/>
        <feOffset dx="2.4630255792620215" dy="2.4630255792620215" result="GD0MsGE6Xc3"/>
        <feFlood flood-color="#2525CE" flood-opacity="1" in="GD0MsGE6Xc3"/>
        <feComposite in2="GD0MsGE6Xc3" operator="in" result="Z8I31rbuZDp"/>
        <feMerge result="aRfuZhgoudV">
          <feMergeNode in="Z8I31rbuZDp"/>
          <feMergeNode in="SourceGraphic"/>
        </feMerge>
        <feGaussianBlur result="Gn61dj2sGrF" stdDeviation="10"/>
      </filter>
      <filter x="125.9186" y="476.371" width="203.6228" height="144" id="tUk6sjh6M" filterUnits="userSpaceOnUse" primitiveUnits="userSpaceOnUse" color-interpolation-filters="sRGB">
        <feGaussianBlur in="SourceGraphic" stdDeviation="4"/>
        <feOffset dx="0" dy="0" result="J97AxnCBJcC"/>
        <feFlood flood-color="#FFC7C7" flood-opacity="0.89" in="J97AxnCBJcC"/>
        <feComposite in2="J97AxnCBJcC" operator="in" result="b02syZiS7-V"/>
        <feMerge result="LkaOTFrxOZJ">
          <feMergeNode in="b02syZiS7-V"/>
          <feMergeNode in="SourceGraphic"/>
        </feMerge>
      </filter>
    </defs>
    <g filter="url(#ikYEXSHZT)">
      <g opacity="1" transform="rotate(0 137.9233 488.371)">
        <svg width="179.6134" height="120" x="137.9233" y="488.371" version="1.1" preserveAspectRatio="none" viewBox="0 -29.4727 45.3711 30.3125">
          <g transform="matrix(1 0 0 1 0 0)" class="icon3">
            <path id="id-BEGfasMba1" d="M20.45-24.88L20.45-24.88Q20.16-24.47 19.89-23.94Q19.63-23.40 19.41-22.70Q19.20-21.99 19.06-21.08Q18.93-20.18 18.89-19.04L18.89-19.04Q18.85-17.99 18.82-16.93Q18.79-15.88 18.73-14.82L18.73-14.82Q18.83-14.84 19.04-14.84L19.04-14.84Q20.04-14.84 21.29-14.54Q22.54-14.24 23.87-13.63L23.87-13.63Q25.66-14.10 27.04-14.86Q28.42-15.63 29.48-16.57Q30.55-17.52 31.38-18.60Q32.21-19.69 32.91-20.78Q33.61-21.88 34.24-22.94Q34.86-24.00 35.55-24.90L35.55-24.90Q36.25-25.84 37.16-26.68Q38.07-27.52 39.03-28.13Q40-28.75 40.98-29.11Q41.95-29.47 42.81-29.47L42.81-29.47Q43.11-29.47 43.35-29.29Q43.59-29.10 43.59-28.77L43.59-28.77Q43.59-28.46 43.39-28.24Q43.18-28.03 42.87-28.01L42.87-28.01Q42.29-27.99 41.49-27.70Q40.70-27.40 39.86-26.88Q39.02-26.35 38.20-25.63Q37.38-24.90 36.72-24.00L36.72-24.00Q35.96-22.97 35.30-21.89Q34.65-20.82 33.97-19.78Q33.30-18.73 32.54-17.72Q31.78-16.72 30.80-15.81Q29.82-14.90 28.56-14.10Q27.30-13.30 25.64-12.66L25.64-12.66Q27.03-11.78 28.32-10.46Q29.61-9.14 31.11-7.52L31.11-7.52Q32.36-6.17 33.47-4.98Q34.57-3.79 35.62-2.90Q36.66-2.01 37.65-1.50Q38.63-1.00 39.65-1.00L39.65-1.00Q40.90-1.00 42.05-1.65Q43.20-2.30 44.00-3.55L44.00-3.55Q44.22-3.89 44.63-3.89L44.63-3.89Q44.96-3.89 45.17-3.65Q45.37-3.42 45.37-3.14L45.37-3.14Q45.37-2.93 45.25-2.75L45.25-2.75Q44.26-1.17 42.77-0.34Q41.29 0.49 39.67 0.49L39.67 0.49Q38.42 0.49 37.27-0.05Q36.11-0.59 34.96-1.53Q33.81-2.48 32.60-3.76Q31.39-5.04 30.02-6.52L30.02-6.52Q29.12-7.48 28.33-8.32Q27.54-9.16 26.79-9.85Q26.04-10.55 25.27-11.10Q24.51-11.66 23.69-12.07L23.69-12.07Q22.64-11.82 21.66-11.72Q20.68-11.62 19.86-11.62L19.86-11.62Q19.47-11.62 19.14-11.64Q18.81-11.66 18.54-11.72L18.54-11.72Q18.38-10 18.08-8.41Q17.77-6.82 17.27-5.42Q16.76-4.02 15.99-2.87Q15.21-1.72 14.11-0.90Q13.01-0.08 11.51 0.38Q10.02 0.84 8.07 0.84L8.07 0.84Q6.95 0.84 5.87 0.65Q4.79 0.47 3.78 0.11Q2.77-0.25 1.87-0.77Q0.96-1.29 0.23-1.95L0.23-1.95Q0-2.15 0-2.50L0-2.50Q0-2.79 0.21-3.02Q0.43-3.24 0.72-3.24L0.72-3.24Q1.04-3.24 1.23-3.05L1.23-3.05Q2.50-1.89 4.30-1.26Q6.09-0.63 8.07-0.63L8.07-0.63Q10.55-0.63 12.20-1.46Q13.85-2.30 14.86-3.84Q15.88-5.37 16.39-7.51Q16.89-9.65 17.11-12.27L17.11-12.27Q16.88-12.48 16.77-12.72Q16.66-12.97 16.66-13.24L16.66-13.24Q16.66-13.91 17.27-14.34L17.27-14.34Q17.32-15.49 17.35-16.69Q17.38-17.89 17.42-19.16L17.42-19.16Q17.46-21.17 17.85-22.54Q18.24-23.91 18.71-24.84L18.71-24.84Q17.73-24.80 16.66-24.91Q15.59-25.02 14.47-25.16Q13.36-25.29 12.25-25.42Q11.13-25.55 10.08-25.55L10.08-25.55Q8.73-25.55 7.54-25.16Q6.35-24.77 5.46-24.05Q4.57-23.34 4.06-22.34Q3.55-21.35 3.55-20.16L3.55-20.16Q3.55-19.12 3.99-18.46Q4.43-17.79 4.98-17.39Q5.53-16.99 5.99-16.84Q6.45-16.68 6.50-16.66L6.50-16.66Q6.76-16.60 6.91-16.40Q7.07-16.19 7.07-15.94L7.07-15.94Q7.07-15.61 6.84-15.41Q6.60-15.21 6.33-15.21L6.33-15.21Q6.21-15.21 6.15-15.23L6.15-15.23Q5.61-15.35 4.90-15.70Q4.20-16.05 3.57-16.65Q2.95-17.25 2.52-18.12Q2.09-18.98 2.09-20.16L2.09-20.16Q2.09-21.68 2.71-22.94Q3.34-24.20 4.42-25.11Q5.51-26.02 6.96-26.51Q8.42-27.01 10.06-27.01L10.06-27.01Q11.33-27.01 12.64-26.88Q13.95-26.74 15.20-26.59Q16.45-26.45 17.59-26.34Q18.73-26.23 19.69-26.31L19.69-26.31Q20.06-26.78 20.59-27.23Q21.11-27.68 21.71-28.02Q22.30-28.36 22.92-28.57Q23.54-28.79 24.12-28.79L24.12-28.79Q24.75-28.79 25.20-28.41Q25.64-28.03 25.64-27.44L25.64-27.44Q25.64-26.97 25.22-26.54Q24.80-26.11 24.09-25.76Q23.38-25.41 22.43-25.18Q21.48-24.94 20.45-24.88ZM21.66-13.09L21.66-13.09Q21.48-13.14 21.19-13.21Q20.90-13.28 20.55-13.34Q20.20-13.40 19.80-13.44Q19.41-13.48 19.04-13.48L19.04-13.48Q18.95-13.48 18.86-13.47Q18.77-13.46 18.67-13.44L18.67-13.44Q18.65-13.34 18.65-13.23Q18.65-13.13 18.63-13.03L18.63-13.03Q18.93-12.95 19.69-12.95L19.69-12.95Q19.80-12.95 20.06-12.95Q20.31-12.95 20.62-12.97Q20.92-12.99 21.20-13.01Q21.48-13.03 21.66-13.09ZM24.18-27.60L24.18-27.60Q23.98-27.60 23.66-27.50Q23.34-27.40 22.98-27.23Q22.62-27.05 22.25-26.84Q21.88-26.62 21.58-26.39L21.58-26.39Q22.09-26.43 22.63-26.62Q23.16-26.82 23.57-27.03Q23.98-27.25 24.17-27.42Q24.36-27.60 24.18-27.60Z"/>
          </g>
        </svg>
      </g>
    </g>
    <g filter="url(#tUk6sjh6M)">
      <g opacity="1" transform="rotate(0 137.9186 488.371)">
        <svg width="179.6228" height="120" x="137.9186" y="488.371" version="1.1" preserveAspectRatio="none" viewBox="0 -29.4727 45.3711 30.3125">
          <g transform="matrix(1 0 0 1 0 0)" class="companyName">
            <path id="id-D6z1nYkh1" d="M20.45-24.88L20.45-24.88Q20.16-24.47 19.89-23.94Q19.63-23.40 19.41-22.70Q19.20-21.99 19.06-21.08Q18.93-20.18 18.89-19.04L18.89-19.04Q18.85-17.99 18.82-16.93Q18.79-15.88 18.73-14.82L18.73-14.82Q18.83-14.84 19.04-14.84L19.04-14.84Q20.04-14.84 21.29-14.54Q22.54-14.24 23.87-13.63L23.87-13.63Q25.66-14.10 27.04-14.86Q28.42-15.63 29.48-16.57Q30.55-17.52 31.38-18.60Q32.21-19.69 32.91-20.78Q33.61-21.88 34.24-22.94Q34.86-24.00 35.55-24.90L35.55-24.90Q36.25-25.84 37.16-26.68Q38.07-27.52 39.03-28.13Q40-28.75 40.98-29.11Q41.95-29.47 42.81-29.47L42.81-29.47Q43.11-29.47 43.35-29.29Q43.59-29.10 43.59-28.77L43.59-28.77Q43.59-28.46 43.39-28.24Q43.18-28.03 42.87-28.01L42.87-28.01Q42.29-27.99 41.49-27.70Q40.70-27.40 39.86-26.88Q39.02-26.35 38.20-25.63Q37.38-24.90 36.72-24.00L36.72-24.00Q35.96-22.97 35.30-21.89Q34.65-20.82 33.97-19.78Q33.30-18.73 32.54-17.72Q31.78-16.72 30.80-15.81Q29.82-14.90 28.56-14.10Q27.30-13.30 25.64-12.66L25.64-12.66Q27.03-11.78 28.32-10.46Q29.61-9.14 31.11-7.52L31.11-7.52Q32.36-6.17 33.47-4.98Q34.57-3.79 35.62-2.90Q36.66-2.01 37.65-1.50Q38.63-1.00 39.65-1.00L39.65-1.00Q40.90-1.00 42.05-1.65Q43.20-2.30 44.00-3.55L44.00-3.55Q44.22-3.89 44.63-3.89L44.63-3.89Q44.96-3.89 45.17-3.65Q45.37-3.42 45.37-3.14L45.37-3.14Q45.37-2.93 45.25-2.75L45.25-2.75Q44.26-1.17 42.77-0.34Q41.29 0.49 39.67 0.49L39.67 0.49Q38.42 0.49 37.27-0.05Q36.11-0.59 34.96-1.53Q33.81-2.48 32.60-3.76Q31.39-5.04 30.02-6.52L30.02-6.52Q29.12-7.48 28.33-8.32Q27.54-9.16 26.79-9.85Q26.04-10.55 25.27-11.10Q24.51-11.66 23.69-12.07L23.69-12.07Q22.64-11.82 21.66-11.72Q20.68-11.62 19.86-11.62L19.86-11.62Q19.47-11.62 19.14-11.64Q18.81-11.66 18.54-11.72L18.54-11.72Q18.38-10 18.08-8.41Q17.77-6.82 17.27-5.42Q16.76-4.02 15.99-2.87Q15.21-1.72 14.11-0.90Q13.01-0.08 11.51 0.38Q10.02 0.84 8.07 0.84L8.07 0.84Q6.95 0.84 5.87 0.65Q4.79 0.47 3.78 0.11Q2.77-0.25 1.87-0.77Q0.96-1.29 0.23-1.95L0.23-1.95Q0-2.15 0-2.50L0-2.50Q0-2.79 0.21-3.02Q0.43-3.24 0.72-3.24L0.72-3.24Q1.04-3.24 1.23-3.05L1.23-3.05Q2.50-1.89 4.30-1.26Q6.09-0.63 8.07-0.63L8.07-0.63Q10.55-0.63 12.20-1.46Q13.85-2.30 14.86-3.84Q15.88-5.37 16.39-7.51Q16.89-9.65 17.11-12.27L17.11-12.27Q16.88-12.48 16.77-12.72Q16.66-12.97 16.66-13.24L16.66-13.24Q16.66-13.91 17.27-14.34L17.27-14.34Q17.32-15.49 17.35-16.69Q17.38-17.89 17.42-19.16L17.42-19.16Q17.46-21.17 17.85-22.54Q18.24-23.91 18.71-24.84L18.71-24.84Q17.73-24.80 16.66-24.91Q15.59-25.02 14.47-25.16Q13.36-25.29 12.25-25.42Q11.13-25.55 10.08-25.55L10.08-25.55Q8.73-25.55 7.54-25.16Q6.35-24.77 5.46-24.05Q4.57-23.34 4.06-22.34Q3.55-21.35 3.55-20.16L3.55-20.16Q3.55-19.12 3.99-18.46Q4.43-17.79 4.98-17.39Q5.53-16.99 5.99-16.84Q6.45-16.68 6.50-16.66L6.50-16.66Q6.76-16.60 6.91-16.40Q7.07-16.19 7.07-15.94L7.07-15.94Q7.07-15.61 6.84-15.41Q6.60-15.21 6.33-15.21L6.33-15.21Q6.21-15.21 6.15-15.23L6.15-15.23Q5.61-15.35 4.90-15.70Q4.20-16.05 3.57-16.65Q2.95-17.25 2.52-18.12Q2.09-18.98 2.09-20.16L2.09-20.16Q2.09-21.68 2.71-22.94Q3.34-24.20 4.42-25.11Q5.51-26.02 6.96-26.51Q8.42-27.01 10.06-27.01L10.06-27.01Q11.33-27.01 12.64-26.88Q13.95-26.74 15.20-26.59Q16.45-26.45 17.59-26.34Q18.73-26.23 19.69-26.31L19.69-26.31Q20.06-26.78 20.59-27.23Q21.11-27.68 21.71-28.02Q22.30-28.36 22.92-28.57Q23.54-28.79 24.12-28.79L24.12-28.79Q24.75-28.79 25.20-28.41Q25.64-28.03 25.64-27.44L25.64-27.44Q25.64-26.97 25.22-26.54Q24.80-26.11 24.09-25.76Q23.38-25.41 22.43-25.18Q21.48-24.94 20.45-24.88ZM21.66-13.09L21.66-13.09Q21.48-13.14 21.19-13.21Q20.90-13.28 20.55-13.34Q20.20-13.40 19.80-13.44Q19.41-13.48 19.04-13.48L19.04-13.48Q18.95-13.48 18.86-13.47Q18.77-13.46 18.67-13.44L18.67-13.44Q18.65-13.34 18.65-13.23Q18.65-13.13 18.63-13.03L18.63-13.03Q18.93-12.95 19.69-12.95L19.69-12.95Q19.80-12.95 20.06-12.95Q20.31-12.95 20.62-12.97Q20.92-12.99 21.20-13.01Q21.48-13.03 21.66-13.09ZM24.18-27.60L24.18-27.60Q23.98-27.60 23.66-27.50Q23.34-27.40 22.98-27.23Q22.62-27.05 22.25-26.84Q21.88-26.62 21.58-26.39L21.58-26.39Q22.09-26.43 22.63-26.62Q23.16-26.82 23.57-27.03Q23.98-27.25 24.17-27.42Q24.36-27.60 24.18-27.60Z"/>
          </g>
        </svg>
      </g>
    </g>
  </svg>
</svg>